<?xml version="1.0" encoding="UTF-8"?>
<svg width="800px" height="400px" viewBox="0 0 800 400" version="1.1" xmlns="http://www.w3.org/2000/svg" xmlns:xlink="http://www.w3.org/1999/xlink">
    <title>Vegan Scanner Banner</title>
    <defs>
        <linearGradient x1="0%" y1="0%" x2="100%" y2="100%" id="bannerGradient">
            <stop stop-color="#4CAF50" offset="0%"></stop>
            <stop stop-color="#8BC34A" offset="100%"></stop>
        </linearGradient>
    </defs>
    <g stroke="none" stroke-width="1" fill="none" fill-rule="evenodd">
        <rect fill="url(#bannerGradient)" x="0" y="0" width="800" height="400" rx="20"></rect>
        <circle fill="#FFFFFF" opacity="0.2" cx="200" cy="100" r="80"></circle>
        <circle fill="#FFFFFF" opacity="0.15" cx="650" cy="300" r="120"></circle>
        
        <!-- Food Package Icon -->
        <g transform="translate(350, 150)">
            <rect fill="#FFFFFF" x="-60" y="-60" width="120" height="140" rx="10"></rect>
            <rect fill="#4CAF50" x="-50" y="-50" width="100" height="30" rx="5"></rect>
            <rect fill="#E8F5E9" x="-40" y="-10" width="80" height="10" rx="2"></rect>
            <rect fill="#E8F5E9" x="-40" y="10" width="80" height="10" rx="2"></rect>
            <rect fill="#E8F5E9" x="-40" y="30" width="60" height="10" rx="2"></rect>
            <circle fill="#4CAF50" cx="30" cy="50" r="20"></circle>
            <path d="M20,50 L30,60 L45,40" stroke="#FFFFFF" stroke-width="4" stroke-linecap="round" stroke-linejoin="round"></path>
        </g>
        
        <!-- Camera Lens Elements -->
        <circle fill="#333333" opacity="0.8" cx="400" cy="200" r="170" stroke="#FFFFFF" stroke-width="5"></circle>
        <circle fill="none" stroke="#FFFFFF" stroke-width="3" opacity="0.6" cx="400" cy="200" r="140"></circle>
        <circle fill="none" stroke="#FFFFFF" stroke-width="2" opacity="0.4" cx="400" cy="200" r="110"></circle>
        <circle fill="none" stroke="#FFFFFF" stroke-width="1" opacity="0.3" cx="400" cy="200" r="80"></circle>
        <circle fill="#FFFFFF" opacity="0.1" cx="380" cy="180" r="20"></circle>
        <circle fill="#FFFFFF" opacity="0.1" cx="350" cy="150" r="10"></circle>
    </g>
</svg>
